<?xml version="1.0" standalone="no"?>
<!DOCTYPE svg PUBLIC "-//W3C//DTD SVG 20010904//EN"
 "http://www.w3.org/TR/2001/REC-SVG-20010904/DTD/svg10.dtd">
<svg version="1.0" xmlns="http://www.w3.org/2000/svg"
 width="400.000000pt" height="400.000000pt" viewBox="0 0 400.000000 400.000000"
 preserveAspectRatio="xMidYMid meet">

<g transform="translate(0.000000,400.000000) scale(0.100000,-0.100000)"
fill="#000000" stroke="none">
<path d="M1937 2963 c-32 -76 -57 -143 -57 -149 0 -6 9 -34 21 -62 l21 -50
168 -22 169 -23 83 -125 c46 -68 85 -128 88 -133 3 -4 113 -36 245 -70 132
-34 242 -63 244 -65 2 -2 -26 -49 -62 -104 -67 -100 -75 -126 -23 -71 15 15
44 33 64 39 21 6 48 21 60 32 25 23 160 222 164 241 2 9 -66 31 -212 68 l-215
56 -82 121 -81 120 -144 18 c-79 10 -165 22 -193 26 l-50 8 43 1 c23 0 42 3
42 4 0 2 -24 57 -54 122 l-55 118 -22 -46 c-13 -26 -26 -47 -30 -47 -3 0 -19
29 -35 65 -16 35 -32 65 -35 65 -3 0 -31 -62 -62 -137z m91 -54 l21 -56 -35
-34 c-29 -28 -37 -31 -44 -19 -5 8 -15 24 -23 35 -13 17 -12 25 16 82 17 35
34 59 38 55 4 -4 16 -32 27 -63z m383 -275 c14 -3 42 -25 64 -51 36 -43 37
-46 14 -40 -13 3 -45 9 -72 12 -39 6 -52 14 -77 45 -17 21 -30 41 -30 44 0 6
27 3 101 -10z"/>
<path d="M1275 2905 c-9 -22 -50 -120 -90 -217 l-74 -176 18 -55 19 -54 -123
-209 c-68 -115 -122 -210 -119 -213 2 -2 50 -10 106 -18 56 -7 104 -17 107
-22 3 -5 100 -133 215 -284 l210 -276 77 129 c43 71 89 149 104 174 l26 44
-56 13 c-31 7 -58 16 -61 20 -2 5 57 8 133 8 76 0 226 7 334 15 276 20 301 33
440 234 43 64 78 116 76 118 -1 1 -116 32 -256 68 -139 35 -254 66 -256 68 -1
2 -42 59 -90 128 -49 69 -93 128 -98 131 -5 3 -48 12 -95 18 -48 7 -100 14
-117 17 -175 25 -228 34 -234 40 -3 3 18 3 48 -1 34 -5 52 -4 50 3 -22 57
-124 272 -130 272 -4 0 -19 -20 -33 -45 -15 -25 -29 -45 -31 -45 -3 0 -22 35
-44 77 l-39 78 -17 -40z m55 -241 l30 -88 -44 -44 -44 -44 -31 45 -31 45 25
56 c13 30 31 72 40 92 8 20 18 35 20 32 3 -3 19 -45 35 -94z m470 -274 c8 -5
35 -29 60 -54 41 -43 43 -46 20 -45 -14 0 -53 6 -87 12 -56 11 -64 16 -99 61
l-37 48 64 -7 c35 -4 71 -11 79 -15z"/>
<path d="M2040 2523 c0 -2 15 -23 32 -47 31 -41 37 -44 106 -55 41 -7 75 -11
78 -9 2 2 -16 25 -39 50 -39 44 -47 47 -109 56 -38 4 -68 7 -68 5z"/>
<path d="M468 1149 c-17 -9 -18 -34 -18 -294 0 -271 1 -285 19 -295 11 -5 68
-10 126 -10 145 0 145 0 145 110 l0 90 -40 0 -40 0 0 -55 0 -55 -60 0 -60 0 0
215 0 215 60 0 60 0 0 -55 0 -55 40 0 40 0 0 90 c0 78 -2 91 -19 100 -25 13
-230 13 -253 -1z"/>
<path d="M820 855 l0 -305 125 0 125 0 0 45 0 45 -80 0 -80 0 0 90 0 90 65 0
65 0 0 45 0 45 -65 0 -65 0 0 80 0 80 75 0 75 0 0 45 0 45 -120 0 -120 0 0
-305z"/>
<path d="M1140 855 l0 -305 45 0 45 0 0 260 0 260 60 0 60 0 0 -90 0 -90 -45
0 -45 0 1 -37 c0 -21 22 -96 48 -168 l47 -130 42 -3 c24 -2 42 1 42 7 0 6 -21
67 -46 137 -25 69 -44 127 -42 128 2 2 19 7 38 12 l35 10 3 144 c2 127 1 146
-15 157 -11 9 -58 13 -145 13 l-128 0 0 -305z"/>
<path d="M1510 855 l0 -305 126 0 c69 0 134 5 145 10 17 10 19 22 19 130 l0
120 -30 27 -30 27 30 31 c30 31 30 32 30 138 0 95 -2 107 -19 117 -11 5 -76
10 -145 10 l-126 0 0 -305z m210 151 c0 -56 -3 -67 -22 -80 -12 -9 -39 -16
-60 -16 l-38 0 0 80 0 80 60 0 60 0 0 -64z m-25 -198 c24 -11 25 -15 25 -90
l0 -78 -60 0 -60 0 0 90 0 90 35 0 c19 0 46 -5 60 -12z"/>
<path d="M1880 855 l0 -305 125 0 125 0 0 45 0 45 -80 0 -80 0 0 90 0 90 65 0
65 0 0 45 0 45 -65 0 -65 0 0 80 0 80 75 0 75 0 0 45 0 45 -120 0 -120 0 0
-305z"/>
<path d="M2200 855 l0 -305 45 0 45 0 0 260 0 260 60 0 60 0 0 -90 0 -90 -45
0 -45 0 1 -37 c0 -21 22 -96 48 -168 l47 -130 42 -3 c24 -2 42 1 42 7 0 6 -21
67 -46 137 -25 69 -44 127 -42 128 2 2 19 7 38 12 l35 10 3 144 c2 127 1 146
-15 157 -11 9 -58 13 -145 13 l-128 0 0 -305z"/>
<path d="M2588 1149 c-15 -8 -18 -25 -18 -108 l0 -99 100 -95 100 -95 0 -56 0
-56 -60 0 -60 0 0 55 0 55 -40 0 -40 0 0 -90 c0 -110 0 -110 142 -110 145 0
148 3 148 128 l0 97 -105 102 c-103 100 -105 102 -105 147 l0 46 60 0 60 0 0
-50 0 -50 45 0 45 0 0 79 c0 106 -7 111 -150 111 -58 0 -113 -5 -122 -11z"/>
<path d="M2940 855 l0 -305 125 0 125 0 0 45 0 45 -80 0 -80 0 0 90 0 90 65 0
65 0 0 45 0 45 -65 0 -65 0 0 80 0 80 75 0 75 0 0 45 0 45 -120 0 -120 0 0
-305z"/>
<path d="M3278 1149 c-17 -9 -18 -34 -18 -294 0 -271 1 -285 19 -295 11 -5 68
-10 126 -10 145 0 145 0 145 110 l0 90 -40 0 -40 0 0 -55 0 -55 -60 0 -60 0 0
215 0 215 60 0 60 0 0 -55 0 -55 40 0 40 0 0 90 c0 78 -2 91 -19 100 -25 13
-230 13 -253 -1z"/>
<path d="M410 405 l0 -25 1590 0 1590 0 0 25 0 25 -1590 0 -1590 0 0 -25z"/>
</g>
</svg>
