<?xml version="1.0" standalone="no"?>
<!DOCTYPE svg PUBLIC "-//W3C//DTD SVG 20010904//EN"
 "http://www.w3.org/TR/2001/REC-SVG-20010904/DTD/svg10.dtd">
<svg version="1.0" xmlns="http://www.w3.org/2000/svg"
 width="300.000000pt" height="300.000000pt" viewBox="0 0 300.000000 300.000000"
 preserveAspectRatio="xMidYMid meet">
<metadata>
Created by potrace 1.14, written by Peter Selinger 2001-2017
</metadata>
<g transform="translate(0.000000,300.000000) scale(0.100000,-0.100000)"
fill="#000000" stroke="none">
<path d="M1407 2183 c-32 -76 -57 -143 -57 -149 0 -6 9 -34 21 -62 23 -56 -1
-48 226 -78 l133 -18 82 -124 c46 -69 86 -129 89 -134 3 -5 113 -36 245 -70
131 -33 241 -63 243 -65 3 -2 -27 -51 -67 -108 -74 -108 -81 -131 -22 -70 19
19 40 35 48 35 8 0 32 10 53 22 28 16 60 53 120 145 45 68 80 125 78 126 -2 2
-100 28 -218 58 l-214 54 -81 120 -81 120 -120 16 c-66 10 -151 21 -190 25
-56 7 -62 9 -32 12 20 2 37 4 37 6 0 2 -24 56 -54 121 l-55 118 -22 -46 c-13
-26 -26 -47 -30 -47 -4 0 -20 29 -35 65 -16 36 -31 65 -34 65 -4 0 -32 -62
-63 -137z m91 -54 l21 -56 -35 -34 c-33 -32 -34 -32 -49 -13 -28 37 -28 56 1
116 15 32 31 55 35 51 3 -5 16 -33 27 -64z m336 -258 c3 -5 21 -12 39 -15 23
-4 45 -20 71 -52 l39 -46 -29 6 c-16 3 -47 8 -69 12 -29 5 -52 19 -82 49 -23
23 -39 45 -36 49 10 9 61 7 67 -3z"/>
<path d="M758 2154 c-3 -5 -44 -102 -92 -215 l-86 -207 19 -54 19 -55 -124
-209 c-68 -115 -120 -211 -116 -215 4 -3 49 -11 100 -17 51 -6 96 -14 102 -17
5 -3 104 -131 221 -285 117 -154 213 -279 215 -278 1 2 47 80 103 173 l100
170 -55 17 c-31 9 -58 19 -61 22 -3 3 57 5 133 5 77 0 227 7 334 14 226 16
269 29 342 105 41 42 181 242 175 248 -2 2 -117 32 -257 69 -140 36 -256 69
-259 74 -54 84 -180 252 -191 256 -8 2 -109 18 -224 34 -115 17 -211 33 -215
36 -3 4 18 3 47 -1 28 -3 52 -4 52 -2 0 6 -118 266 -127 281 -3 5 -18 -14 -34
-42 -16 -28 -32 -51 -34 -51 -3 0 -22 34 -43 77 -21 42 -41 72 -44 67z m29
-401 l-43 -44 -32 45 -32 44 25 56 c13 30 32 72 41 93 l16 38 34 -94 35 -95
-44 -43z m464 -139 c14 -3 48 -27 74 -54 46 -46 47 -50 25 -50 -27 1 -150 26
-153 31 -2 2 -15 21 -30 41 -15 20 -27 40 -27 43 0 6 44 2 111 -11z"/>
<path d="M1510 1744 c0 -2 14 -23 31 -47 29 -42 33 -44 105 -56 42 -7 77 -11
80 -9 2 2 -16 25 -39 50 -39 44 -47 47 -109 56 -38 4 -68 7 -68 6z"/>
</g>
</svg>
